<?xml version="1.0" standalone="no"?><!DOCTYPE svg PUBLIC "-//W3C//DTD SVG 1.1//EN" "http://www.w3.org/Graphics/SVG/1.1/DTD/svg11.dtd"><svg t="1537604748391" class="icon" style="" viewBox="0 0 1024 1024" version="1.1" xmlns="http://www.w3.org/2000/svg" p-id="5694" xmlns:xlink="http://www.w3.org/1999/xlink" width="200" height="200"><defs><style type="text/css"></style></defs><path d="M295.473493 1023.863467c-71.2704-141.994667-33.314133-223.368533 21.435734-300.032 59.869867-83.968 75.3664-167.048533 75.3664-167.048534s47.104 58.709333 28.2624 150.528c83.285333-88.746667 98.986667-230.263467 86.357333-284.4672C694.970027 548.864 775.456427 821.725867 667.117227 1024c576.512-312.5248 143.36-780.151467 68.061866-832.853333 25.053867 52.701867 29.9008 141.858133-20.957866 185.207466C628.205227 64.034133 415.75936 0 415.75936 0c25.122133 161.041067-91.067733 337.169067-203.1616 468.718933-3.959467-64.170667-8.123733-108.544-43.349333-169.984C161.39776 415.470933 68.350293 510.498133 43.02336 627.370667c-34.133333 158.3104 25.668267 274.2272 252.381867 396.629333v-0.136533z" fill="#2c2c2c" p-id="5695"></path></svg>