<?xml version="1.0" standalone="no"?><!DOCTYPE svg PUBLIC "-//W3C//DTD SVG 1.1//EN" "http://www.w3.org/Graphics/SVG/1.1/DTD/svg11.dtd"><svg t="1537604699343" class="icon" style="" viewBox="0 0 1025 1024" version="1.1" xmlns="http://www.w3.org/2000/svg" p-id="4993" xmlns:xlink="http://www.w3.org/1999/xlink" width="200.1953125" height="200"><defs><style type="text/css"></style></defs><path d="M383.982325 320.269257l63.99757 0 0 319.984778-63.99757 0 0-319.984778Z" p-id="4994"></path><path d="M639.969533 320.269257l63.996546 0 0 255.988232-63.996546 0 0-255.988232Z" p-id="4995"></path><path d="M895.957765 320.269257l63.996546 0 0 255.988232-63.996546 0 0-255.988232Z" p-id="4996"></path><path d="M383.982325 320.269257l191.990662 0 0 63.99757-191.990662 0 0-63.99757Z" p-id="4997"></path><path d="M383.982325 448.263373l191.990662 0 0 63.99757-191.990662 0 0-63.99757Z" p-id="4998"></path><path d="M383.982325 576.257489l191.990662 0 0 63.996546-191.990662 0 0-63.996546Z" p-id="4999"></path><path d="M63.997546 320.269257l63.99757 0 0 319.984778-63.99757 0 0-319.984778Z" p-id="5000"></path><path d="M255.987185 320.269257l63.99757 0 0 319.984778-63.99757 0 0-319.984778Z" p-id="5001"></path><path d="M767.964673 320.269257l63.996546 0 0 191.990662-63.996546 0 0-191.990662Z" p-id="5002"></path><path d="M703.96608 512.25992l63.998593 0 0 127.994116-63.998593 0 0-127.994116Z" p-id="5003"></path><path d="M831.961219 512.25992l63.996546 0 0 127.994116-63.996546 0 0-127.994116Z" p-id="5004"></path><path d="M127.994093 384.266827l63.996546 0 0 127.994116-63.996546 0 0-127.994116Z" p-id="5005"></path><path d="M191.990639 448.263373l63.996546 0 0 127.994116-63.996546 0 0-127.994116Z" p-id="5006"></path><path d="M1023.950858 160.27738c0 17.749246-14.31196 31.998785-31.998785 31.998785L31.998762 192.276165c-17.686824 0-31.998785-14.249539-31.998785-31.998785l0 0c0-17.624403 14.31196-31.998785 31.998785-31.998785l959.953312 0C1009.638898 128.278595 1023.950858 142.652977 1023.950858 160.27738L1023.950858 160.27738z" p-id="5007"></path><path d="M319.985778 800.246937c0 17.749246-14.310937 31.998785-31.999808 31.998785L31.998762 832.245721c-17.686824 0-31.998785-14.249539-31.998785-31.998785l0 0c0-17.624403 14.31196-31.998785 31.998785-31.998785L287.98597 768.248152C305.673818 768.248152 319.985778 782.622534 319.985778 800.246937L319.985778 800.246937z" p-id="5008"></path><path d="M319.985778 928.241053c0 17.749246-14.310937 31.998785-31.999808 31.998785l0 0c-17.685801 0-31.998785-14.249539-31.998785-31.998785L255.987185 800.246937c0-17.624403 14.31196-31.998785 31.998785-31.998785l0 0c17.687848 0 31.999808 14.374382 31.999808 31.998785L319.985778 928.241053z" p-id="5009"></path><path d="M1023.950858 800.246937c0 17.749246-14.31196 31.998785-31.998785 31.998785L415.98111 832.245721c-17.687848 0-31.999808-14.249539-31.999808-31.998785l0 0c0-17.624403 14.310937-31.998785 31.999808-31.998785l575.971987 0C1009.638898 768.248152 1023.950858 782.622534 1023.950858 800.246937L1023.950858 800.246937z" p-id="5010"></path><path d="M319.985778 832.244698l63.996546 0 0 63.996546-63.996546 0 0-63.996546Z" p-id="5011"></path></svg>