<?xml version="1.0" standalone="no"?><!DOCTYPE svg PUBLIC "-//W3C//DTD SVG 1.1//EN" "http://www.w3.org/Graphics/SVG/1.1/DTD/svg11.dtd"><svg t="1537604622225" class="icon" style="" viewBox="0 0 1024 1024" version="1.1" xmlns="http://www.w3.org/2000/svg" p-id="3086" xmlns:xlink="http://www.w3.org/1999/xlink" width="200" height="200"><defs><style type="text/css"></style></defs><path d="M36.571429 121.904762v780.190476c0 47.055238 38.253714 85.333333 85.333333 85.333333h780.190476c47.055238 0 85.333333-38.253714 85.333333-85.333333V121.904762c0-47.055238-38.253714-85.333333-85.333333-85.333333H121.904762C74.849524 36.571429 36.571429 74.825143 36.571429 121.904762z m-24.380953 0C12.190476 61.366857 61.391238 12.190476 121.904762 12.190476h780.190476c60.537905 0 109.714286 49.200762 109.714286 109.714286v780.190476c0 60.537905-49.200762 109.714286-109.714286 109.714286H121.904762A109.81181 109.81181 0 0 1 12.190476 902.095238V121.904762z m745.081905 385.609143c71.875048 22.625524 124.099048 92.574476 124.099048 175.152762a12.190476 12.190476 0 1 1-24.380953 0c0-87.649524-67.291429-158.47619-149.942857-158.476191a12.239238 12.239238 0 0 1-2.706286-0.292571 121.368381 121.368381 0 0 1-75.337143-19.553524 146.724571 146.724571 0 0 1-39.838476 29.013333C692.345905 563.273143 768 662.552381 768 780.190476a12.190476 12.190476 0 1 1-24.380952 0c0-128.048762-98.377143-231.619048-219.428572-231.619047s-219.428571 103.570286-219.428571 231.619047a12.190476 12.190476 0 1 1-24.380953 0c0-117.662476 75.654095-216.941714 178.834286-246.808381-14.750476-7.314286-28.086857-17.066667-39.497143-28.696381-19.504762 12.629333-42.349714 19.504762-66.194285 19.504762-95.451429 0-173.104762 81.724952-173.104762 182.857143a12.190476 12.190476 0 1 1-24.380953 0c0-92.891429 58.270476-171.641905 138.727619-197.924571a121.904762 121.904762 0 1 1 124.928-209.237334 145.846857 145.846857 0 0 1 104.496762-43.885714c41.106286 0 78.238476 16.944762 104.813714 44.227048a121.904762 121.904762 0 0 1 128.292572 207.286857z m-112.664381-22.137905a97.52381 97.52381 0 1 0 0-166.180571A145.603048 145.603048 0 0 1 670.47619 402.285714c0 30.866286-9.557333 59.489524-25.86819 83.090286z m-240.591238 0.365714A145.603048 145.603048 0 0 1 377.904762 402.285714c0-31.012571 9.654857-59.782095 26.112-83.456a97.52381 97.52381 0 1 0 0 166.887619zM524.190476 524.190476a121.904762 121.904762 0 1 0 0-243.809524 121.904762 121.904762 0 0 0 0 243.809524z" p-id="3087"></path></svg>